<?xml version="1.0" standalone="no"?>
<!DOCTYPE svg PUBLIC "-//W3C//DTD SVG 20010904//EN"
 "http://www.w3.org/TR/2001/REC-SVG-20010904/DTD/svg10.dtd">
<svg version="1.0" xmlns="http://www.w3.org/2000/svg"
 width="512.000000pt" height="512.000000pt" viewBox="0 0 512.000000 512.000000"
 preserveAspectRatio="xMidYMid meet">
<metadata>
Created by potrace 1.16, written by Peter Selinger 2001-2019
</metadata>
<g transform="translate(0.000000,512.000000) scale(0.100000,-0.100000)"
fill="#000000" stroke="none">
<path d="M1587 4203 c-20 -23 -32 -125 -22 -198 6 -49 11 -59 37 -73 l30 -17
-5 -115 c-4 -109 -7 -123 -54 -250 -28 -74 -61 -166 -74 -205 l-24 -70 -3
-1115 -2 -1116 23 -44 c15 -29 40 -55 68 -72 l44 -28 982 0 c962 -1 983 0
1021 19 49 25 88 71 102 119 8 26 10 366 8 1112 l-3 1075 -24 45 c-13 25 -43
68 -67 97 -86 100 -122 226 -71 248 21 10 22 16 25 142 l3 131 -27 21 c-26 20
-38 21 -295 21 -178 0 -276 -4 -293 -11 -39 -18 -48 -56 -44 -176 3 -102 5
-111 31 -142 15 -18 27 -41 27 -51 0 -29 11 -50 26 -50 16 0 18 8 14 68 l-2
43 206 -3 206 -3 0 -71 c0 -39 3 -85 6 -102 l6 -31 -38 11 c-21 5 -66 8 -100
6 -77 -5 -148 -45 -181 -103 -27 -48 -28 -68 -7 -101 13 -19 20 -22 30 -13 9
8 45 10 106 7 85 -5 97 -3 136 19 48 28 57 49 15 38 -16 -4 -79 -10 -140 -12
l-113 -4 0 24 c0 33 68 94 115 103 87 16 206 -24 259 -86 24 -30 31 -45 38
-95 4 -27 32 -25 36 3 6 39 -18 91 -69 146 -61 67 -69 89 -68 184 l2 77 8 -61
c10 -77 32 -121 108 -214 44 -55 63 -87 71 -122 6 -32 10 -411 10 -1091 0
-1162 5 -1085 -69 -1134 l-34 -23 -966 0 c-747 0 -971 3 -990 13 -13 6 -34 25
-45 40 l-21 29 2 1110 c2 758 6 1123 14 1152 26 100 62 206 70 206 11 0 158
88 183 109 30 27 43 62 49 144 6 71 5 77 -12 77 -16 0 -19 -10 -23 -74 -6 -87
-22 -113 -93 -152 -27 -15 -59 -34 -69 -43 -18 -15 -19 -15 -11 4 29 72 35
108 41 220 l7 125 299 0 298 0 0 -79 c0 -72 4 -86 36 -148 44 -86 74 -175 74
-225 0 -32 5 -40 26 -50 l27 -12 -7 -114 c-6 -105 -5 -113 11 -110 22 4 30 40
32 146 l1 82 70 0 70 0 0 -45 c0 -44 1 -45 33 -45 18 0 38 -5 45 -12 17 -17
15 -55 -3 -62 -16 -6 -20 -32 -6 -40 5 -3 23 1 40 10 27 14 31 20 31 58 0 53
-21 83 -64 91 l-34 7 6 128 c4 120 4 128 -17 149 -18 18 -32 21 -116 21 -87 0
-95 -2 -112 -24 l-18 -23 -31 81 c-18 44 -35 106 -39 137 -7 55 -6 57 27 87
l33 32 3 109 c5 165 44 151 -421 151 -353 0 -385 -1 -400 -17z m683 -48 c0 -2
-7 -23 -16 -45 -9 -23 -14 -44 -10 -47 12 -12 28 14 33 56 5 39 7 41 39 41
l34 0 0 -55 c0 -53 -1 -55 -27 -55 -21 0 -24 3 -15 12 14 14 16 68 3 68 -5 0
-12 -18 -16 -40 l-7 -40 -334 0 -334 0 0 55 0 55 325 0 c179 0 325 -2 325 -5z
m70 -170 c-11 -13 -63 -15 -360 -15 -300 0 -349 2 -354 15 -5 13 39 15 361 15
324 0 364 -2 353 -15z m1180 -125 c12 -19 12 -21 0 -40 -8 -13 -52 -15 -275
-18 -237 -3 -266 -2 -271 13 -4 9 -2 27 5 41 l11 25 260 -3 c219 -3 262 -5
270 -18z m-1 -116 c11 -10 -14 -16 -89 -21 -101 -7 -92 -21 18 -24 71 -3 82
-5 82 -21 0 -17 -17 -18 -275 -18 l-275 0 0 45 0 45 168 2 c169 3 364 -1 371
-8z m-970 -120 c29 -6 31 -9 31 -50 0 -24 -4 -44 -10 -44 -5 0 -10 16 -10 36
0 21 -4 33 -10 29 -5 -3 -10 -19 -10 -36 0 -19 -5 -29 -15 -29 -11 0 -16 12
-17 43 l-1 42 -4 -42 c-3 -35 -8 -43 -24 -43 -15 0 -19 7 -19 38 0 58 19 70
89 56z m71 -49 c0 -25 -4 -45 -9 -45 -5 0 -11 20 -13 45 -2 31 1 45 9 45 9 0
13 -16 13 -45z m0 -100 c0 -12 -16 -15 -80 -15 -64 0 -80 3 -80 15 0 12 16 15
80 15 64 0 80 -3 80 -15z"/>
<path d="M3475 3850 c-7 -12 2 -30 16 -30 5 0 9 9 9 20 0 21 -15 27 -25 10z"/>
<path d="M3390 3841 c0 -5 16 -11 35 -13 24 -3 35 0 35 9 0 8 -13 13 -35 13
-19 0 -35 -4 -35 -9z"/>
<path d="M2033 3760 c-35 -21 -47 -48 -15 -34 31 14 113 16 143 4 55 -23 148
-154 126 -177 -3 -2 -45 19 -92 48 -79 49 -94 54 -157 57 -82 5 -141 -16 -163
-59 -20 -38 -9 -42 38 -11 34 23 51 27 106 26 59 0 74 -5 151 -47 47 -26 100
-63 118 -82 l32 -35 -2 -112 c-2 -100 -2 -103 -5 -32 -5 112 -6 113 -163 115
-153 2 -150 4 -150 -132 l0 -96 38 -7 c20 -3 104 -6 185 -6 l149 0 -4 173 c-5
202 -19 252 -95 337 -79 88 -169 114 -240 70z m227 -390 c0 -6 -43 -10 -110
-10 -67 0 -110 4 -110 10 0 6 43 10 110 10 67 0 110 -4 110 -10z m-1 -72 c-1
-40 -2 -41 -9 -13 -5 21 -8 24 -9 10 0 -11 -8 -31 -17 -43 -13 -19 -24 -22
-83 -22 -39 0 -72 5 -79 12 -7 7 -12 31 -12 55 l0 43 105 0 105 0 -1 -42z"/>
<path d="M2123 3694 c30 -15 57 -39 70 -61 12 -20 23 -31 25 -24 10 30 -80
111 -122 111 -15 -1 -6 -9 27 -26z"/>
<path d="M1981 3576 c2 -2 35 -7 73 -11 48 -5 66 -4 62 4 -4 6 -36 11 -73 11
-37 0 -64 -2 -62 -4z"/>
<path d="M3400 3560 c0 -5 5 -10 10 -10 6 0 10 5 10 10 0 6 -4 10 -10 10 -5 0
-10 -4 -10 -10z"/>
<path d="M3071 3514 c-14 -53 -84 -130 -128 -139 -54 -12 -92 -34 -98 -58 -4
-13 -5 -48 -3 -78 l3 -54 95 0 c52 0 100 1 105 3 6 1 9 22 7 46 -4 45 21 110
53 136 43 35 96 180 66 180 -6 0 -11 -11 -11 -24 0 -42 -18 -76 -74 -134 -60
-64 -71 -82 -80 -134 l-7 -38 -54 0 c-30 0 -57 5 -60 10 -4 6 -1 26 5 44 9 27
20 37 57 51 84 32 163 131 163 205 0 47 -26 37 -39 -16z"/>
<path d="M1778 3436 c-81 -29 -136 -88 -145 -155 -5 -33 -1 -44 19 -64 21 -20
36 -25 115 -30 108 -7 140 0 166 36 26 34 28 134 4 171 -31 47 -98 64 -159 42z
m91 -41 c30 -15 41 -39 41 -93 0 -66 -10 -72 -115 -72 -102 0 -125 10 -125 55
0 32 46 84 95 106 49 23 68 23 104 4z"/>
<path d="M1795 3376 c-36 -15 -95 -64 -95 -78 0 -5 15 3 33 18 17 15 49 35 70
44 45 20 37 35 -8 16z"/>
<path d="M2557 3390 c-3 -8 -8 -53 -11 -100 -3 -47 -10 -86 -16 -88 -18 -6
-10 -18 13 -18 32 0 37 12 36 101 0 81 -12 135 -22 105z"/>
<path d="M2523 3300 c0 -30 2 -43 4 -27 2 15 2 39 0 55 -2 15 -4 2 -4 -28z"/>
<path d="M3365 3330 c3 -5 13 -10 21 -10 8 0 12 5 9 10 -3 6 -13 10 -21 10 -8
0 -12 -4 -9 -10z"/>
<path d="M3420 3188 c-40 -66 -62 -196 -40 -247 15 -37 61 -53 115 -41 62 14
68 24 63 116 -6 105 -47 197 -90 202 -22 3 -32 -3 -48 -30z m89 -100 c6 -27
11 -70 11 -94 0 -39 -3 -46 -26 -54 -36 -14 -50 -12 -69 7 -14 14 -16 28 -11
82 4 36 16 86 27 111 l20 45 18 -24 c10 -13 23 -46 30 -73z"/>
<path d="M2380 3083 c-218 -10 -388 -49 -467 -110 -27 -21 -41 -27 -35 -16 8
13 6 26 -10 50 l-20 33 69 2 c105 2 123 4 135 16 19 19 -10 23 -128 20 l-109
-3 1 -30 c1 -16 10 -51 19 -78 18 -47 18 -47 -10 -109 -69 -153 -29 -320 89
-377 48 -24 116 -28 116 -8 0 7 -16 19 -35 26 -27 9 -36 19 -40 44 -10 53 12
205 35 241 24 39 25 46 6 46 -46 0 -85 -111 -86 -241 l-1 -54 -28 33 c-54 63
-62 141 -26 252 34 103 108 153 286 192 94 20 131 22 399 23 274 0 303 -2 400
-23 135 -31 203 -57 247 -95 34 -30 35 -33 29 -83 -5 -46 -3 -54 20 -78 31
-30 37 -31 53 -12 10 11 8 18 -9 33 -16 16 -20 30 -18 71 2 39 -3 58 -18 79
-23 31 -140 94 -206 111 l-43 10 63 -1 c63 0 83 6 66 22 -9 8 -615 20 -744 14z"/>
<path d="M3179 3083 c-7 -42 26 -87 78 -109 43 -18 53 -18 53 4 0 9 -15 24
-33 32 -17 8 -41 29 -52 47 -18 30 -43 43 -46 26z"/>
<path d="M3260 3070 c0 -11 40 -34 47 -26 3 3 3 12 0 21 -7 16 -47 21 -47 5z"/>
<path d="M1672 3063 c-24 -10 -43 -60 -32 -88 13 -35 13 -432 0 -440 -5 -3
-10 -35 -10 -69 0 -50 6 -75 29 -121 l30 -59 -30 -33 c-42 -49 -41 -101 5
-151 31 -34 39 -37 86 -37 46 0 55 4 81 33 34 37 37 72 11 122 -15 30 -15 39
-5 62 17 34 9 52 -31 76 -30 18 -85 106 -74 118 3 2 17 0 31 -5 14 -5 28 -7
31 -4 14 15 4 32 -26 42 -18 6 -42 21 -55 33 -22 21 -23 27 -23 193 0 175 4
195 40 195 46 0 68 90 32 123 -18 16 -63 21 -90 10z m66 -60 c4 -24 -30 -48
-54 -39 -14 6 -19 47 -7 60 16 15 58 1 61 -21z m-36 -539 c12 -73 44 -124 94
-152 30 -17 5 -35 -32 -22 -46 16 -102 114 -104 181 0 55 32 50 42 -7z m57
-225 c75 -26 66 -139 -11 -139 -64 0 -102 86 -58 130 23 23 27 24 69 9z"/>
<path d="M2431 2853 c-19 -38 -40 -231 -25 -245 3 -3 14 -4 24 -1 15 4 20 16
22 57 3 37 6 46 11 31 15 -36 24 -50 33 -50 13 0 16 139 4 185 -9 33 -15 40
-35 40 -13 0 -28 -8 -34 -17z"/>
<path d="M2547 2794 c-4 -42 -7 -101 -7 -131 0 -51 2 -54 23 -51 19 3 22 10
25 53 l4 50 16 -34 c21 -42 33 -43 53 -1 l16 33 7 -50 c4 -31 12 -53 21 -57
19 -7 22 10 30 141 6 98 6 102 -16 114 -28 15 -42 -2 -64 -79 -9 -30 -19 -51
-23 -47 -4 3 -14 34 -22 68 -12 49 -19 63 -36 65 -19 3 -22 -3 -27 -74z"/>
<path d="M3420 2850 c0 -10 8 -23 18 -29 16 -9 16 -12 -3 -43 -16 -26 -20 -49
-19 -107 1 -70 3 -76 33 -103 35 -31 66 -35 99 -12 20 14 22 23 22 109 0 91
-1 94 -29 118 l-29 24 24 13 c21 12 37 58 17 48 -5 -2 -20 -10 -36 -18 -24
-12 -32 -11 -62 3 -34 16 -35 16 -35 -3z m110 -115 c0 -10 -10 -15 -30 -15
-16 0 -30 -4 -30 -10 0 -5 14 -10 31 -10 39 0 34 -23 -7 -30 l-29 -6 33 -7
c38 -8 43 -27 7 -27 -14 0 -25 -4 -25 -10 0 -5 11 -10 25 -10 14 0 25 -4 25
-9 0 -15 -30 -21 -51 -11 -16 9 -19 22 -19 85 l0 75 35 0 c24 0 35 -5 35 -15z"/>
<path d="M2163 2853 c-9 -3 -13 -31 -13 -86 l0 -82 -25 59 c-13 33 -31 67 -40
75 -15 15 -18 14 -37 -9 -18 -22 -20 -34 -14 -104 6 -78 32 -154 51 -148 6 2
9 31 7 70 l-3 67 36 -52 c60 -89 85 -69 84 67 -1 130 -10 158 -46 143z"/>
<path d="M2275 2848 c-9 -25 -45 -217 -45 -237 0 -41 32 -20 46 29 13 48 39
51 58 7 16 -40 33 -54 48 -39 11 11 -9 113 -38 205 -13 39 -20 47 -40 47 -14
0 -27 -6 -29 -12z m45 -120 c0 -5 -4 -8 -10 -8 -5 0 -10 10 -10 23 0 18 2 19
10 7 5 -8 10 -18 10 -22z"/>
<path d="M2787 2828 c-17 -69 -29 -210 -19 -220 6 -6 37 -13 68 -16 54 -4 56
-4 52 19 -2 18 -12 25 -41 32 -28 7 -37 13 -33 24 3 8 6 21 6 28 0 10 11 12
41 8 38 -6 41 -5 37 18 -2 18 -11 25 -33 29 -21 4 -31 11 -33 28 -3 20 1 22
42 22 34 0 46 4 46 15 0 21 -33 35 -83 35 -38 0 -46 -3 -50 -22z"/>
<path d="M2956 2813 c-11 -35 -36 -178 -36 -205 0 -21 5 -28 20 -28 15 0 21 9
26 41 6 38 9 40 33 34 33 -9 32 -5 19 -49 -11 -34 -10 -40 7 -53 11 -7 29 -12
40 -11 25 4 33 45 11 54 -9 3 -16 15 -16 26 0 16 6 19 33 16 27 -2 33 1 35 19
3 17 -3 24 -22 29 -28 7 -29 8 -20 41 5 18 11 21 40 16 48 -8 47 23 -2 43 -57
24 -76 16 -89 -36 -7 -30 -17 -46 -29 -48 -16 -3 -17 3 -14 59 2 53 0 64 -14
67 -9 2 -19 -5 -22 -15z"/>
<path d="M3223 2664 c-3 -8 -1 -20 6 -27 27 -27 1 -107 -36 -107 -6 0 -16 -7
-23 -15 -10 -12 -10 -19 -1 -28 9 -9 19 -7 46 7 48 26 68 60 63 107 -2 21 -1
39 2 39 18 0 91 -76 109 -113 27 -56 28 -131 1 -174 -19 -32 -36 -40 -95 -45
-40 -4 -47 -35 -10 -44 69 -17 141 37 165 124 31 120 -80 292 -190 292 -19 0
-33 -6 -37 -16z"/>
<path d="M3511 2461 c-14 -25 -14 -96 -1 -122 6 -10 19 -19 30 -19 24 0 40 29
40 72 0 66 -46 112 -69 69z m39 -73 c0 -16 -4 -28 -10 -28 -5 0 -10 19 -10 43
0 31 3 38 10 27 5 -8 10 -27 10 -42z"/>
<path d="M2136 2455 c-8 -21 -8 -93 0 -122 9 -34 34 -29 34 6 0 26 4 30 31 33
41 4 56 28 43 65 -8 24 -15 28 -55 31 -36 2 -48 -1 -53 -13z m74 -35 c0 -13
-7 -20 -20 -20 -13 0 -20 7 -20 20 0 13 7 20 20 20 13 0 20 -7 20 -20z"/>
<path d="M2295 2458 c-14 -39 -35 -115 -35 -130 0 -10 7 -18 15 -18 8 0 15 7
15 15 0 21 47 19 58 -2 6 -9 16 -14 25 -10 14 5 14 12 0 64 -8 32 -19 66 -24
75 -11 21 -47 24 -54 6z m32 -87 c-15 -6 -20 8 -12 36 l8 28 6 -30 c4 -16 3
-32 -2 -34z"/>
<path d="M2407 2463 c-4 -3 -7 -40 -7 -80 0 -66 2 -74 18 -71 11 2 19 15 22
37 l5 34 17 -36 c10 -21 24 -37 33 -37 12 0 15 15 15 80 0 64 -3 80 -15 80
-11 0 -15 -12 -16 -42 l-1 -43 -19 43 c-18 39 -36 51 -52 35z"/>
<path d="M2537 2464 c-4 -4 -7 -40 -7 -81 0 -66 2 -73 20 -73 16 0 20 7 20 37
l0 38 25 -38 c42 -61 55 -50 55 43 0 73 -2 80 -20 80 -17 0 -20 -7 -20 -42 l0
-43 -23 39 c-22 40 -38 52 -50 40z"/>
<path d="M2670 2456 c0 -7 9 -16 20 -19 17 -4 20 -14 20 -66 0 -48 3 -61 15
-61 12 0 15 13 15 61 0 52 3 62 20 66 11 3 20 12 20 19 0 10 -15 14 -55 14
-40 0 -55 -4 -55 -14z"/>
<path d="M2800 2453 c0 -10 9 -31 20 -48 11 -16 20 -45 20 -62 0 -26 4 -33 20
-33 14 0 20 7 20 24 0 13 9 45 20 71 11 26 20 51 20 56 0 17 -41 9 -46 -8 -3
-10 -8 -25 -11 -33 -4 -10 -10 -5 -21 18 -17 34 -42 43 -42 15z"/>
<path d="M1893 2384 c-9 -15 -19 -52 -21 -84 -7 -101 42 -164 156 -201 32 -10
50 -18 41 -18 -45 -2 -63 -75 -32 -134 19 -38 30 -20 14 24 -13 37 1 72 27 67
31 -6 27 -69 -7 -134 l-31 -57 0 -368 c0 -234 -4 -370 -10 -374 -7 -4 -10 116
-10 353 l0 360 -26 6 -26 7 7 84 c5 62 4 89 -5 100 -17 20 -312 22 -328 3 -7
-9 -8 -169 -4 -481 4 -386 8 -471 19 -483 11 -11 51 -14 189 -14 196 0 204 3
222 77 6 21 12 196 15 389 l6 352 30 54 c35 61 39 102 14 137 -16 24 -16 24
11 17 161 -40 526 -51 741 -22 196 27 329 71 359 118 18 29 -1 31 -56 5 -214
-101 -714 -126 -1043 -52 -190 43 -240 82 -232 178 2 26 12 56 22 67 19 21 14
50 -9 50 -9 0 -23 -12 -33 -26z m37 -479 l0 -75 -97 0 c-66 -1 -106 -5 -123
-15 -14 -8 -28 -14 -32 -15 -5 0 -8 41 -8 90 l0 90 130 0 130 0 0 -75z m30
-135 c12 -7 12 -13 4 -27 -10 -16 -29 -18 -143 -21 -127 -2 -131 -2 -131 18 0
12 9 24 23 30 30 12 228 12 247 0z m-210 -352 c0 -139 3 -263 6 -275 6 -21 12
-23 112 -25 75 -2 107 -7 110 -16 3 -10 -28 -12 -145 -10 -134 3 -148 5 -147
21 0 9 1 139 2 287 l2 270 30 0 30 0 0 -252z m158 188 c4 -68 -3 -76 -64 -76
-39 0 -42 2 -47 33 -2 17 -2 49 1 70 l5 38 51 -3 51 -3 3 -59z m40 -118 c33
-33 -4 -88 -58 -88 -32 0 -50 17 -50 47 0 38 80 69 108 41z m-126 -10 c-16
-16 -15 -59 2 -84 13 -18 12 -21 -5 -32 -18 -12 -19 -9 -19 58 0 59 3 70 17
70 13 0 14 -3 5 -12z m138 -108 c0 -5 -2 -10 -4 -10 -3 0 -8 5 -11 10 -3 6 -1
10 4 10 6 0 11 -4 11 -10z m-46 -34 c55 -23 56 -75 2 -118 -26 -22 -89 -23
-110 -2 -35 34 -4 117 47 127 12 2 23 5 25 6 1 0 18 -5 36 -13z"/>
<path d="M1805 1940 c-71 -4 -83 -7 -56 -12 46 -11 123 -10 141 2 23 14 12 15
-85 10z"/>
<path d="M1900 1460 c0 -5 4 -10 9 -10 6 0 13 5 16 10 3 6 -1 10 -9 10 -9 0
-16 -4 -16 -10z"/>
<path d="M1868 1443 c7 -3 16 -2 19 1 4 3 -2 6 -13 5 -11 0 -14 -3 -6 -6z"/>
<path d="M1845 1300 c4 -6 11 -8 16 -5 14 9 11 15 -7 15 -8 0 -12 -5 -9 -10z"/>
<path d="M1900 1299 c0 -5 5 -7 10 -4 6 3 10 8 10 11 0 2 -4 4 -10 4 -5 0 -10
-5 -10 -11z"/>
<path d="M1825 1250 c-11 -18 4 -25 24 -13 14 9 22 9 31 0 10 -9 11 -9 8 3 -5
18 -53 26 -63 10z"/>
<path d="M3410 2270 c-64 -22 -104 -61 -94 -93 11 -37 40 -59 86 -64 52 -6 95
12 128 54 l22 28 -7 -25 c-14 -49 -41 -85 -71 -94 -57 -17 -79 -34 -93 -74
-13 -36 -13 -43 2 -66 26 -40 79 -36 123 8 35 35 47 87 23 101 -7 5 -5 13 6
25 9 10 25 41 36 69 17 47 18 55 4 87 -10 23 -25 39 -49 49 -44 19 -49 19
-116 -5z m108 -53 c4 -21 -35 -55 -76 -67 -63 -17 -110 22 -72 60 18 18 32 23
85 33 29 5 59 -8 63 -26z m-18 -210 c0 -29 -42 -70 -67 -65 -28 5 -29 53 -1
72 35 25 68 21 68 -7z"/>
<path d="M3193 2100 c-47 -19 -51 -71 -11 -138 24 -39 65 -62 111 -62 44 0 67
26 67 76 0 45 -18 71 -74 108 -41 27 -57 30 -93 16z m98 -69 c42 -42 48 -61
23 -85 -22 -23 -39 -20 -78 14 -38 34 -53 75 -35 96 20 24 50 16 90 -25z"/>
<path d="M3005 2016 c-55 -24 -72 -103 -35 -164 l20 -32 -23 -35 c-26 -41 -37
-44 -37 -10 0 14 -4 25 -10 25 -6 0 -10 -116 -10 -329 0 -313 1 -329 20 -354
27 -35 26 -49 -5 -41 -20 5 -25 3 -25 -14 0 -21 18 -32 52 -32 18 0 19 4 13
43 -4 23 -9 172 -11 331 l-5 290 30 23 c18 14 36 41 43 66 8 25 29 58 55 83
37 35 43 46 43 82 0 32 -6 45 -26 61 -31 24 -47 25 -89 7z m75 -76 c0 -29 -38
-70 -66 -70 -35 0 -22 104 14 113 30 6 52 -12 52 -43z"/>
<path d="M2265 2000 c-8 -14 3 -30 21 -30 27 0 18 -87 -16 -147 l-30 -53 0
-333 c0 -367 0 -366 64 -392 40 -16 484 -12 516 5 12 6 30 26 40 43 19 30 20
53 20 417 0 359 -1 388 -19 423 l-19 37 28 0 c22 0 29 -5 32 -22 2 -12 9 -23
16 -26 8 -2 12 10 12 42 l0 46 -329 0 c-209 0 -332 -4 -336 -10z m544 -66 c17
-28 21 -50 19 -112 0 -42 -3 -61 -5 -42 -7 71 -13 81 -56 100 -70 32 -148 27
-237 -16 -41 -20 -87 -45 -102 -55 -14 -11 -40 -19 -56 -19 -21 0 -37 -8 -51
-26 -18 -23 -21 -41 -21 -135 0 -59 4 -110 9 -113 13 -9 1 -46 -15 -46 -11 0
-14 27 -14 140 0 137 1 142 30 197 23 42 30 69 30 109 l0 54 224 0 224 0 21
-36z m-42 -97 c16 -16 16 -18 -5 -39 -29 -29 -131 -37 -185 -15 -46 20 -47 38
-4 60 44 23 169 19 194 -6z m-294 -61 c-10 -13 -20 -20 -21 -15 -7 17 7 39 23
39 14 0 14 -3 -2 -24z m138 -31 c38 -10 55 -11 60 -3 4 7 14 3 27 -10 l21 -21
-37 -11 c-20 -5 -61 -10 -90 -10 -43 0 -58 5 -77 25 -27 26 -31 45 -14 62 9 9
18 8 35 -3 12 -9 46 -22 75 -29z m159 0 c0 -8 -9 -19 -20 -25 -18 -9 -20 -8
-20 15 0 18 5 25 20 25 11 0 20 -7 20 -15z m-340 -31 l22 -35 -31 -39 c-36
-46 -37 -50 -11 -50 11 0 20 -4 20 -10 0 -5 -7 -10 -15 -10 -9 0 -29 -7 -45
-15 l-30 -16 0 99 c0 54 3 102 7 105 3 4 19 7 34 7 21 0 33 -9 49 -36z m400
-24 c0 -5 -7 -10 -16 -10 -8 0 -12 5 -9 10 3 6 10 10 16 10 5 0 9 -4 9 -10z
m-31 -27 c26 -15 31 -23 29 -48 -3 -34 -42 -61 -103 -70 -48 -8 -89 15 -67 36
6 7 12 28 12 46 0 30 3 33 30 33 20 0 30 -5 30 -15 0 -8 9 -15 20 -15 23 0 27
18 5 26 -8 4 -15 10 -15 15 0 14 26 11 59 -8z m-226 -13 c63 -13 69 -17 57
-40 -14 -25 -80 -43 -121 -32 -43 11 -56 33 -41 67 10 22 17 26 35 21 12 -4
44 -11 70 -16z m-85 -105 c-21 -22 -123 -74 -130 -67 -12 12 23 41 69 58 39
13 71 18 61 9z m174 -45 c24 -16 53 -39 64 -51 l19 -21 -50 6 c-27 3 -101 11
-164 16 -63 5 -116 11 -118 13 -6 6 45 37 85 52 63 23 113 18 164 -15z m165
-32 c-2 -13 -4 -3 -4 22 0 25 2 35 4 23 2 -13 2 -33 0 -45z m-35 -30 c-2 -5
-21 7 -44 25 l-40 32 38 11 39 11 5 -36 c3 -20 4 -39 2 -43z m-481 -99 c7
-125 27 -161 109 -205 30 -16 58 -19 196 -19 144 0 164 2 182 19 12 10 23 28
25 40 3 12 5 7 5 -14 3 -75 -14 -80 -282 -80 -289 0 -266 -17 -266 201 0 124
3 160 13 157 8 -3 14 -37 18 -99z m254 76 c265 -27 269 -40 10 -35 -133 2
-176 13 -189 45 -3 9 -2 14 2 11 4 -2 84 -12 177 -21z m-196 -19 l22 -23 -26
-17 -25 -16 0 40 c0 22 1 40 3 40 2 0 13 -11 26 -24z m436 -68 c-4 -13 -10
-50 -14 -84 -7 -72 -22 -94 -64 -94 -31 0 -31 0 -9 16 28 19 62 85 62 118 0
14 -9 31 -21 40 -20 13 -20 14 -2 19 44 11 56 8 48 -15z m-145 3 c21 -6 18 -9
-29 -24 -29 -9 -72 -17 -95 -17 -47 0 -142 25 -151 40 -7 11 235 12 275 1z
m78 -48 c4 -43 -56 -106 -118 -123 -52 -14 -147 -7 -188 14 -37 19 -76 62 -67
75 3 6 1 11 -4 11 -6 0 -11 9 -11 20 0 25 10 25 80 0 83 -29 164 -26 231 9 30
15 59 27 64 26 6 -1 11 -15 13 -32z"/>
<path d="M2704 1823 c3 -22 36 -30 36 -10 0 8 -7 18 -16 21 -22 8 -23 8 -20
-11z"/>
<path d="M2634 1815 c26 -19 42 -19 26 0 -7 8 -20 15 -29 15 -13 -1 -13 -3 3
-15z"/>
<path d="M2531 1729 c5 -11 14 -17 20 -14 15 10 10 22 -11 28 -17 4 -18 2 -9
-14z"/>
<path d="M2592 1718 c6 -18 28 -21 28 -4 0 9 -7 16 -16 16 -9 0 -14 -5 -12
-12z"/>
<path d="M2405 1679 c-4 -6 -5 -13 -2 -16 7 -7 27 6 27 18 0 12 -17 12 -25 -2z"/>
<path d="M2787 1624 c-8 -8 1 -24 14 -24 5 0 9 7 9 15 0 15 -12 20 -23 9z"/>
<path d="M2690 1605 c0 -2 16 -12 36 -21 25 -12 38 -14 46 -6 11 11 5 13 -64
27 -10 2 -18 2 -18 0z"/>
<path d="M2570 1625 c0 -8 5 -15 10 -15 6 0 10 7 10 15 0 8 -4 15 -10 15 -5 0
-10 -7 -10 -15z"/>
<path d="M2497 1614 c23 -17 33 -17 33 -1 0 6 -11 13 -26 13 -23 2 -24 1 -7
-12z"/>
<path d="M2546 1501 c-3 -5 1 -11 9 -15 8 -3 15 -1 15 4 0 13 -18 22 -24 11z"/>
<path d="M2508 1483 c7 -3 16 -2 19 1 4 3 -2 6 -13 5 -11 0 -14 -3 -6 -6z"/>
<path d="M2600 1481 c0 -6 5 -13 10 -16 6 -3 10 1 10 9 0 9 -4 16 -10 16 -5 0
-10 -4 -10 -9z"/>
<path d="M2752 1493 c-15 -6 -6 -23 14 -23 8 0 14 7 14 15 0 15 -6 17 -28 8z"/>
<path d="M2650 1259 c-40 -21 -49 -28 -32 -29 25 0 97 33 107 50 10 16 -16 9
-75 -21z"/>
<path d="M2425 1250 c3 -5 12 -10 20 -10 7 0 15 -5 17 -12 3 -7 10 -8 17 -3
10 5 4 12 -19 21 -39 17 -43 17 -35 4z"/>
<path d="M2538 1218 c9 -9 15 -9 24 0 9 9 7 12 -12 12 -19 0 -21 -3 -12 -12z"/>
<path d="M3113 1830 c-23 -14 -35 -31 -43 -62 -6 -24 -15 -51 -21 -62 -9 -15
-7 -23 8 -38 19 -19 19 -20 -9 -75 l-28 -56 0 -206 c0 -304 1 -305 300 -299
274 5 270 0 270 315 0 182 -3 213 -19 249 -18 39 -18 43 -2 58 11 12 16 33 15
73 0 51 -3 58 -37 89 l-37 34 -182 0 c-164 0 -186 -2 -215 -20z m406 -44 c14
-13 21 -31 21 -58 l0 -38 -221 0 -222 0 6 42 c10 75 24 80 223 76 152 -3 174
-5 193 -22z m-92 -152 l81 -7 19 -41 c16 -36 18 -64 15 -251 -4 -276 16 -255
-243 -255 -190 0 -190 0 -215 25 l-25 26 3 207 3 207 30 48 30 47 110 0 c61 0
147 -3 192 -6z"/>
<path d="M3490 1749 c13 -45 22 -50 18 -10 -2 19 -8 36 -15 38 -9 3 -10 -4 -3
-28z"/>
<path d="M3451 1744 c0 -11 3 -14 6 -6 3 7 2 16 -1 19 -3 4 -6 -2 -5 -13z"/>
<path d="M3522 1720 c0 -14 2 -19 5 -12 2 6 2 18 0 25 -3 6 -5 1 -5 -13z"/>
<path d="M3401 1565 c7 -16 19 -37 26 -45 26 -28 14 13 -13 45 l-25 30 12 -30z"/>
<path d="M3202 1568 c-19 -19 -15 -29 31 -72 42 -39 43 -43 39 -88 -4 -47 -5
-48 -39 -48 -33 0 -35 3 -68 75 -33 71 -56 92 -68 62 -12 -32 -19 -127 -9
-127 12 0 22 24 22 51 0 29 15 23 32 -15 15 -31 15 -34 -3 -52 -22 -22 -37
-84 -20 -84 6 0 13 11 17 25 3 13 13 30 21 36 12 11 14 5 11 -42 -3 -47 -6
-54 -26 -57 -30 -5 -54 -43 -50 -83 5 -50 26 -48 30 3 3 40 5 43 43 54 53 15
81 3 63 -29 -16 -29 -17 -67 -2 -67 7 0 19 19 26 43 13 38 18 42 54 47 21 3
45 9 52 13 17 12 15 -19 -4 -48 -9 -13 -14 -32 -12 -42 3 -15 7 -12 22 13 l18
30 28 -28 c35 -35 63 -36 96 -3 26 26 27 35 15 200 -1 6 2 28 5 49 5 29 2 49
-11 73 -14 26 -16 36 -7 45 14 14 16 48 3 48 -13 0 -41 -29 -41 -41 0 -6 -15
-16 -32 -24 -29 -12 -37 -11 -69 6 -20 10 -39 25 -42 34 -8 20 -67 55 -92 55
-12 0 -26 -5 -33 -12z m85 -43 c23 -20 25 -24 10 -25 -21 0 -67 28 -67 41 0
17 29 9 57 -16z m81 -68 c6 -7 16 -33 22 -58 10 -40 9 -51 -8 -82 l-19 -36
-27 27 c-22 24 -26 37 -26 88 0 34 3 64 7 67 11 11 40 8 51 -6z m121 -28 c16
-28 8 -83 -11 -77 -7 3 -16 18 -20 36 -12 43 -29 51 -23 10 l5 -33 -12 34
c-10 29 -9 35 7 47 24 18 36 14 54 -17z m-174 -139 c21 -22 36 -42 33 -46 -10
-10 -85 -17 -111 -10 -20 5 -26 14 -30 43 -6 49 -3 53 37 53 24 0 41 -10 71
-40z m167 13 c34 -30 17 -153 -21 -153 -37 1 -61 40 -61 99 0 63 42 91 82 54z"/>
<path d="M3275 1270 c3 -5 18 -10 33 -10 21 0 24 2 12 10 -20 13 -53 13 -45 0z"/>
<path d="M3170 1139 c0 -5 5 -7 10 -4 6 3 10 8 10 11 0 2 -4 4 -10 4 -5 0 -10
-5 -10 -11z"/>
<path d="M2122 1660 c0 -14 2 -19 5 -12 2 6 2 18 0 25 -3 6 -5 1 -5 -13z"/>
<path d="M2128 1531 c-5 -35 -8 -135 -8 -221 0 -131 -3 -159 -15 -164 -19 -7
-20 -36 -1 -36 33 0 36 25 34 256 -2 164 -5 211 -10 165z"/>
<path d="M2092 1063 c2 -13 15 -19 42 -21 48 -4 67 3 60 23 -4 11 -20 15 -56
15 -42 0 -49 -3 -46 -17z"/>
</g>
</svg>